<svg xmlns="http://www.w3.org/2000/svg" width="16" height="16" id="play"><g color="#000" font-family="sans-serif" font-weight="400"><path style="line-height:normal;text-indent:0;text-align:start;text-decoration-line:none;text-decoration-style:solid;text-decoration-color:#000;text-transform:none;block-progression:tb;isolation:auto;mix-blend-mode:normal;marker:none" fill="#c2e4f8" d="M38.014 1041.078c.11 0 .216.044.299.118 1.25 1.094 2.502 2.186 3.753 3.28a.469.469 0 0 1 0 .705l-3.753 3.284a.467.467 0 0 1-.775-.354v-6.564c0-.262.214-.479.476-.469z" overflow="visible" transform="translate(-34.03 -1106.225) scale(1.06642)"></path><path style="line-height:normal;text-indent:0;text-align:start;text-decoration-line:none;text-decoration-style:solid;text-decoration-color:#000;text-transform:none;block-progression:tb;isolation:auto;mix-blend-mode:normal;marker:none" fill="#249fe6" d="M39.413 1038.265a6.571 6.571 0 0 0-6.564 6.564 6.571 6.571 0 0 0 6.564 6.564 6.571 6.571 0 0 0 6.564-6.564 6.571 6.571 0 0 0-6.564-6.564zm0 .938a5.62 5.62 0 0 1 5.626 5.626 5.62 5.62 0 0 1-5.626 5.627 5.62 5.62 0 0 1-5.628-5.627 5.62 5.62 0 0 1 5.628-5.626zm-1.398 1.875a.469.469 0 0 0-.478.47v6.563a.469.469 0 0 0 .777.354l3.753-3.284a.469.469 0 0 0 0-.705c-1.25-1.094-2.503-2.186-3.753-3.28a.469.469 0 0 0-.299-.118zm.46 1.502 2.57 2.247-2.57 2.251v-4.498z" overflow="visible" transform="translate(-34.03 -1106.225) scale(1.06642)"></path></g></svg>